<?xml version="1.0" standalone="no"?>
<!DOCTYPE svg PUBLIC "-//W3C//DTD SVG 20010904//EN"
 "http://www.w3.org/TR/2001/REC-SVG-20010904/DTD/svg10.dtd">
<svg version="1.0" xmlns="http://www.w3.org/2000/svg"
 width="960.000000pt" height="960.000000pt" viewBox="0 0 960.000000 960.000000"
 preserveAspectRatio="xMidYMid meet">

<g transform="translate(0.000000,960.000000) scale(0.100000,-0.100000)"
fill="#000000" stroke="none">
<path d="M5375 4016 c-129 -57 -117 -260 17 -297 146 -39 256 97 187 232 -34
67 -130 97 -204 65z"/>
<path d="M7005 4016 c-71 -32 -110 -124 -85 -200 25 -75 114 -120 196 -97 49
14 66 27 93 71 42 70 21 160 -51 213 -34 25 -113 32 -153 13z"/>
<path d="M4810 3310 l0 -700 130 0 130 0 -2 698 -3 697 -127 3 -128 3 0 -701z"/>
<path d="M3869 3950 c-217 -35 -412 -193 -490 -399 -51 -135 -62 -344 -25
-481 60 -220 226 -391 441 -456 85 -26 315 -26 400 0 198 60 356 208 415 389
6 21 10 40 8 43 -6 5 -270 56 -272 52 -1 -2 -13 -27 -26 -57 -63 -139 -216
-214 -388 -190 -159 22 -268 130 -303 299 -7 31 -9 99 -7 160 7 134 30 199
101 277 68 74 133 103 244 111 162 10 289 -59 353 -192 l29 -62 131 27 c72 15
133 29 136 32 3 2 -4 30 -15 62 -63 178 -220 318 -416 370 -73 19 -240 27
-316 15z"/>
<path d="M1392 3273 l3 -658 305 0 c339 1 380 6 513 68 233 109 363 351 344
643 -19 290 -187 501 -462 580 -50 14 -116 18 -383 21 l-322 5 2 -659z m645
383 c84 -27 145 -83 190 -173 l38 -77 0 -135 c0 -131 -1 -138 -31 -202 -74
-155 -187 -208 -446 -209 l-128 0 0 411 0 411 163 -4 c113 -4 178 -10 214 -22z"/>
<path d="M6254 3600 c-62 -13 -140 -56 -166 -91 l-23 -31 -5 52 -5 52 -115 0
-115 -1 -3 -485 -2 -486 130 0 129 0 3 318 c3 288 5 320 22 355 55 112 239
131 310 34 20 -27 21 -45 26 -365 l5 -337 130 0 130 0 0 345 c0 330 -1 348
-22 416 -44 140 -156 222 -312 230 -42 1 -95 -1 -117 -6z"/>
<path d="M7775 3600 c-175 -35 -314 -161 -367 -334 -26 -84 -30 -221 -9 -306
46 -188 203 -334 391 -363 97 -15 227 2 305 39 73 34 164 125 198 195 44 93
45 91 -58 110 -176 34 -167 34 -191 -14 -53 -109 -226 -136 -317 -49 -98 92
-108 305 -21 419 51 68 163 95 245 60 39 -17 94 -72 104 -104 3 -13 11 -23 17
-23 19 0 252 41 257 45 2 2 -12 37 -31 78 -41 86 -115 165 -190 203 -91 46
-230 64 -333 44z"/>
<path d="M5314 3581 c-2 -2 -4 -222 -4 -488 l0 -483 130 0 130 0 0 488 0 487
-126 0 c-69 0 -128 -2 -130 -4z"/>
<path d="M6944 3581 c-2 -2 -4 -222 -4 -488 l0 -483 130 0 130 0 0 488 0 487
-126 0 c-69 0 -128 -2 -130 -4z"/>
<path d="M2862 3420 c-48 -29 -72 -75 -72 -139 0 -96 58 -154 155 -154 95 0
156 59 157 153 0 59 -24 105 -72 137 -43 30 -121 31 -168 3z"/>
</g>
</svg>
